%TF.GenerationSoftware,KiCad,Pcbnew,(6.0.4-0)*%
%TF.CreationDate,2022-04-01T22:46:24+02:00*%
%TF.ProjectId,sweepv2.1,73776565-7076-4322-9e31-2e6b69636164,rev?*%
%TF.SameCoordinates,Original*%
%TF.FileFunction,Profile,NP*%
%FSLAX46Y46*%
G04 Gerber Fmt 4.6, Leading zero omitted, Abs format (unit mm)*
G04 Created by KiCad (PCBNEW (6.0.4-0)) date 2022-04-01 22:46:24*
%MOMM*%
%LPD*%
G01*
G04 APERTURE LIST*
%TA.AperFunction,Profile*%
%ADD10C,0.050000*%
%TD*%
G04 APERTURE END LIST*
D10*
X131508500Y-77724000D02*
X131506254Y-89547024D01*
X220004999Y-48946165D02*
X219998045Y-30439419D01*
X223714000Y-108050000D02*
G75*
G03*
X226446000Y-107451265I1070000J1650000D01*
G01*
X220005034Y-48946164D02*
G75*
G03*
X222040000Y-50877083I1999966J69964D01*
G01*
X219563295Y-29758875D02*
G75*
G03*
X182067777Y-21502679I-49442795J-135273425D01*
G01*
X178120389Y-21508128D02*
G75*
G03*
X132893000Y-38265000I-253989J-68728072D01*
G01*
X238688017Y-51627083D02*
G75*
G03*
X237938000Y-50877083I-750017J-17D01*
G01*
X132893000Y-38265000D02*
G75*
G03*
X131466055Y-40278702I2445000J-3245000D01*
G01*
X131506294Y-89547021D02*
G75*
G03*
X133544000Y-91383119I1978006J146421D01*
G01*
X219998002Y-30439419D02*
G75*
G03*
X219563290Y-29758889I-750002J19D01*
G01*
X223714000Y-108050000D02*
G75*
G03*
X202185134Y-98863946I-44316000J-74040000D01*
G01*
X222040000Y-50877083D02*
X237938000Y-50877083D01*
X202185136Y-98863939D02*
G75*
G03*
X133544000Y-91383119I-69219136J-316475461D01*
G01*
X238688000Y-58420000D02*
X238688000Y-66548000D01*
X236953304Y-88858150D02*
X226446000Y-107451265D01*
X236953312Y-88858154D02*
G75*
G03*
X238690000Y-83850000I-18792912J9322054D01*
G01*
X182067777Y-21502679D02*
X178120389Y-21508139D01*
X238688000Y-51627083D02*
X238688000Y-58420000D01*
X131466055Y-40278702D02*
X131572000Y-48768000D01*
X129349500Y-48768000D02*
X128960000Y-48768000D01*
X238688000Y-66548000D02*
X238688000Y-75438000D01*
X238688000Y-75438000D02*
X238690000Y-83850000D01*
X129349500Y-72644000D02*
X128960000Y-72644000D01*
X129349500Y-53848000D02*
X128960000Y-53848000D01*
X129349500Y-77724000D02*
X128960000Y-77724000D01*
X131572000Y-53848000D02*
X131572000Y-72644000D01*
X78412223Y-21502679D02*
X82613611Y-21508139D01*
X21792000Y-51627083D02*
X21792000Y-58420000D01*
X128960000Y-77724000D02*
X128975507Y-89545022D01*
X129013945Y-40278702D02*
G75*
G03*
X127587000Y-38265000I-3871945J-1231298D01*
G01*
X126936000Y-91383122D02*
G75*
G03*
X128975507Y-89545022I59500J1984522D01*
G01*
X40481999Y-48949082D02*
X40481955Y-30439419D01*
X21792000Y-66548000D02*
X21792000Y-73914000D01*
X23526696Y-88858150D02*
X34034000Y-107451265D01*
X38446998Y-50880017D02*
G75*
G03*
X40481999Y-48949082I35002J2000917D01*
G01*
X78412223Y-21502678D02*
G75*
G03*
X40916710Y-29758889I11947327J-143529582D01*
G01*
X126936000Y-91383119D02*
G75*
G03*
X58294866Y-98863946I578050J-323956411D01*
G01*
X21789999Y-83530000D02*
G75*
G03*
X23526696Y-88858150I19062771J3266350D01*
G01*
X22542000Y-50877100D02*
G75*
G03*
X21792000Y-51627083I0J-750000D01*
G01*
X21792000Y-58420000D02*
X21792000Y-66548000D01*
X40916692Y-29758850D02*
G75*
G03*
X40481955Y-30439419I315308J-680550D01*
G01*
X34034000Y-107451265D02*
G75*
G03*
X36766000Y-108050000I1662000J1051265D01*
G01*
X127586989Y-38265013D02*
G75*
G03*
X82613611Y-21508139I-44973389J-51973087D01*
G01*
X58294866Y-98863946D02*
G75*
G03*
X36766000Y-108050000I22787134J-83226054D01*
G01*
X21792000Y-73914000D02*
X21790000Y-83530000D01*
X128960000Y-53848000D02*
X128960000Y-72644000D01*
X129013945Y-40278702D02*
X128960000Y-48768000D01*
X131508500Y-77724000D02*
X131254500Y-77724000D01*
X131572000Y-48768000D02*
X131254500Y-48768000D01*
X131254499Y-77724001D02*
G75*
G03*
X129349501Y-77724000I-952499J-380999D01*
G01*
X131254499Y-53848001D02*
G75*
G03*
X129349501Y-53848000I-952499J-380999D01*
G01*
X131572000Y-53848000D02*
X131254500Y-53848000D01*
X131572000Y-72644000D02*
X131254500Y-72644000D01*
X129349501Y-72643999D02*
G75*
G03*
X131254499Y-72644000I952499J380999D01*
G01*
X22542000Y-50877083D02*
X38446998Y-50880000D01*
X129349501Y-48767999D02*
G75*
G03*
X131254499Y-48768000I952499J380999D01*
G01*
M02*
