M48
METRIC,TZ
T1C0.500
T2C0.900
T3C0.991
T4C1.702
T5C3.429
%
G90
G05
T1
X129286Y-49276
X129286Y-50292
X129286Y-51308
X129286Y-52324
X129286Y-53340
X129286Y-73152
X129286Y-74168
X129286Y-75184
X129286Y-76200
X129286Y-77216
X131318Y-49276
X131318Y-50292
X131318Y-51308
X131318Y-52324
X131318Y-53340
X131318Y-73152
X131318Y-74168
X131318Y-75184
X131318Y-76200
X131318Y-77216
T2
X28980Y-53816
X31980Y-53816
X228624Y-53816
X231624Y-53816
T3
X35797Y-104329
X43466Y-34182
X43466Y-51172
X43466Y-68190
X44839Y-99109
X52823Y-95490
X53906Y-34182
X53906Y-51172
X53906Y-68190
X61480Y-31682
X61480Y-48632
X61480Y-65650
X62907Y-92788
X71920Y-31682
X71920Y-48632
X71920Y-65650
X79468Y-26182
X79468Y-43298
X79468Y-60316
X89908Y-26182
X89908Y-43298
X89908Y-60316
X97494Y-33182
X97494Y-50156
X97494Y-67174
X107934Y-33182
X107934Y-50156
X107934Y-67174
X115512Y-45182
X115512Y-62182
X115512Y-79182
X125952Y-45182
X125952Y-62182
X125952Y-79182
X134636Y-45182
X134636Y-62182
X134636Y-79182
X145076Y-45182
X145076Y-62182
X145076Y-79182
X152636Y-33182
X152636Y-50156
X152636Y-67174
X163076Y-33182
X163076Y-50156
X163076Y-67174
X170636Y-26182
X170636Y-43298
X170636Y-60316
X181076Y-26182
X181076Y-43298
X181076Y-60316
X188636Y-31682
X188636Y-48632
X188636Y-65650
X197697Y-92788
X199076Y-31682
X199076Y-48632
X199076Y-65650
X206616Y-51172
X206616Y-68190
X206636Y-34182
X207781Y-95490
X215765Y-99109
X217056Y-51172
X217056Y-68190
X217076Y-34182
X224807Y-104329
T4
X33455Y-100832
X42981Y-95332
X43186Y-38382
X43186Y-55372
X43186Y-72390
X51465Y-91506
X54186Y-38382
X54186Y-55372
X54186Y-72390
X61200Y-35882
X61200Y-52832
X61200Y-69850
X62091Y-88658
X72200Y-35882
X72200Y-52832
X72200Y-69850
X79188Y-30382
X79188Y-47498
X79188Y-64516
X90188Y-30382
X90188Y-47498
X90188Y-64516
X97214Y-37382
X97214Y-54356
X97214Y-71374
X108214Y-37382
X108214Y-54356
X108214Y-71374
X115232Y-49382
X115232Y-66382
X115232Y-83382
X126232Y-49382
X126232Y-66382
X126232Y-83382
X134356Y-49382
X134356Y-66382
X134356Y-83382
X145356Y-49382
X145356Y-66382
X145356Y-83382
X152356Y-37382
X152356Y-54356
X152356Y-71374
X163356Y-37382
X163356Y-54356
X163356Y-71374
X170356Y-30382
X170356Y-47498
X170356Y-64516
X181356Y-30382
X181356Y-47498
X181356Y-64516
X188356Y-35882
X188356Y-52832
X188356Y-69850
X198513Y-88658
X199356Y-35882
X199356Y-52832
X199356Y-69850
X206336Y-55372
X206336Y-72390
X206356Y-38382
X209139Y-91506
X217336Y-55372
X217336Y-72390
X217356Y-38382
X217623Y-95332
X227149Y-100832
T5
X38218Y-98082
X48686Y-38382
X48686Y-55372
X48686Y-72390
X56778Y-90082
X66700Y-35882
X66700Y-52832
X66700Y-69850
X84688Y-30382
X84688Y-47498
X84688Y-64516
X102714Y-37382
X102714Y-54356
X102714Y-71374
X120732Y-49382
X120732Y-66382
X120732Y-83382
X139856Y-49382
X139856Y-66382
X139856Y-83382
X157856Y-37382
X157856Y-54356
X157856Y-71374
X175856Y-30382
X175856Y-47498
X175856Y-64516
X193856Y-35882
X193856Y-52832
X193856Y-69850
X203826Y-90082
X211836Y-55372
X211836Y-72390
X211856Y-38382
X222386Y-98082
T0
M30
