M48
METRIC,TZ
T1C0.400
T2C0.813
T3C1.270
%
G90
G05
T1
X52324Y-63500
X217300Y-53350
X221057Y-53823
T2
X22717Y-55086
X22717Y-57626
X22717Y-60166
X22717Y-62706
X22717Y-65246
X22717Y-67786
X22717Y-70326
X22717Y-72866
X22717Y-75406
X22717Y-77946
X22717Y-80486
X22717Y-83026
X24638Y-52832
X36068Y-52832
X37937Y-55086
X37937Y-57626
X37937Y-60166
X37937Y-62706
X37937Y-65246
X37937Y-67786
X37937Y-70326
X37937Y-72866
X37937Y-75406
X37937Y-77946
X37937Y-80486
X37937Y-83026
X222569Y-55086
X222569Y-57626
X222569Y-60166
X222569Y-62706
X222569Y-65246
X222569Y-67786
X222569Y-70326
X222569Y-72866
X222569Y-75406
X222569Y-77946
X222569Y-80486
X222569Y-83026
X224282Y-52800
X235966Y-52800
X237789Y-55086
X237789Y-57626
X237789Y-60166
X237789Y-62706
X237789Y-65246
X237789Y-67786
X237789Y-70326
X237789Y-72866
X237789Y-75406
X237789Y-77946
X237789Y-80486
X237789Y-83026
T3
X35268Y-92972
X40648Y-92291
X43686Y-42182
X43686Y-59172
X43686Y-76190
X48686Y-44282
X48686Y-61272
X48686Y-78290
X55251Y-84383
X60624Y-85117
X61700Y-39682
X61700Y-56632
X61700Y-73650
X66700Y-41782
X66700Y-58732
X66700Y-75750
X79688Y-34182
X79688Y-51298
X79688Y-68316
X84688Y-36282
X84688Y-53398
X84688Y-70416
X97714Y-41182
X97714Y-58156
X97714Y-75174
X102714Y-43282
X102714Y-60256
X102714Y-77274
X115732Y-53182
X115732Y-70182
X115732Y-87182
X120732Y-55282
X120732Y-72282
X120732Y-89282
X134856Y-53182
X134856Y-70182
X134856Y-87182
X139856Y-55282
X139856Y-72282
X139856Y-89282
X152856Y-41182
X152856Y-58156
X152856Y-75174
X157856Y-43282
X157856Y-60256
X157856Y-77274
X170856Y-34182
X170856Y-51298
X170856Y-68316
X175856Y-36282
X175856Y-53398
X175856Y-70416
X188856Y-39682
X188856Y-56632
X188856Y-73650
X193856Y-41782
X193856Y-58732
X193856Y-75750
X205353Y-84383
X206836Y-59172
X206836Y-76190
X206856Y-42182
X209639Y-87706
X211836Y-61272
X211836Y-78290
X211856Y-44282
X225336Y-92972
X228616Y-97291
T0
M30
