%TF.GenerationSoftware,KiCad,Pcbnew,(6.0.4-0)*%
%TF.CreationDate,2022-04-01T22:46:22+02:00*%
%TF.ProjectId,sweepv2.1,73776565-7076-4322-9e31-2e6b69636164,rev?*%
%TF.SameCoordinates,Original*%
%TF.FileFunction,Soldermask,Top*%
%TF.FilePolarity,Negative*%
%FSLAX46Y46*%
G04 Gerber Fmt 4.6, Leading zero omitted, Abs format (unit mm)*
G04 Created by KiCad (PCBNEW (6.0.4-0)) date 2022-04-01 22:46:22*
%MOMM*%
%LPD*%
G01*
G04 APERTURE LIST*
%TA.AperFunction,Profile*%
%ADD10C,0.050000*%
%TD*%
%ADD11C,0.990600*%
%ADD12C,1.701800*%
%ADD13C,3.429000*%
%ADD14C,2.032000*%
%ADD15C,0.500000*%
%ADD16C,1.397000*%
%ADD17C,1.000000*%
G04 APERTURE END LIST*
D10*
X131508500Y-77724000D02*
X131506254Y-89547024D01*
X220004999Y-48946165D02*
X219998045Y-30439419D01*
X223714000Y-108050000D02*
G75*
G03*
X226446000Y-107451265I1070000J1650000D01*
G01*
X220005034Y-48946164D02*
G75*
G03*
X222040000Y-50877083I1999966J69964D01*
G01*
X219563295Y-29758875D02*
G75*
G03*
X182067777Y-21502679I-49442795J-135273425D01*
G01*
X178120389Y-21508128D02*
G75*
G03*
X132893000Y-38265000I-253989J-68728072D01*
G01*
X238688017Y-51627083D02*
G75*
G03*
X237938000Y-50877083I-750017J-17D01*
G01*
X132893000Y-38265000D02*
G75*
G03*
X131466055Y-40278702I2445000J-3245000D01*
G01*
X131506294Y-89547021D02*
G75*
G03*
X133544000Y-91383119I1978006J146421D01*
G01*
X219998002Y-30439419D02*
G75*
G03*
X219563290Y-29758889I-750002J19D01*
G01*
X223714000Y-108050000D02*
G75*
G03*
X202185134Y-98863946I-44316000J-74040000D01*
G01*
X222040000Y-50877083D02*
X237938000Y-50877083D01*
X202185136Y-98863939D02*
G75*
G03*
X133544000Y-91383119I-69219136J-316475461D01*
G01*
X238688000Y-58420000D02*
X238688000Y-66548000D01*
X236953304Y-88858150D02*
X226446000Y-107451265D01*
X236953312Y-88858154D02*
G75*
G03*
X238690000Y-83850000I-18792912J9322054D01*
G01*
X182067777Y-21502679D02*
X178120389Y-21508139D01*
X238688000Y-51627083D02*
X238688000Y-58420000D01*
X131466055Y-40278702D02*
X131572000Y-48768000D01*
X129349500Y-48768000D02*
X128960000Y-48768000D01*
X238688000Y-66548000D02*
X238688000Y-75438000D01*
X238688000Y-75438000D02*
X238690000Y-83850000D01*
X129349500Y-72644000D02*
X128960000Y-72644000D01*
X129349500Y-53848000D02*
X128960000Y-53848000D01*
X129349500Y-77724000D02*
X128960000Y-77724000D01*
X131572000Y-53848000D02*
X131572000Y-72644000D01*
X78412223Y-21502679D02*
X82613611Y-21508139D01*
X21792000Y-51627083D02*
X21792000Y-58420000D01*
X128960000Y-77724000D02*
X128975507Y-89545022D01*
X129013945Y-40278702D02*
G75*
G03*
X127587000Y-38265000I-3871945J-1231298D01*
G01*
X126936000Y-91383122D02*
G75*
G03*
X128975507Y-89545022I59500J1984522D01*
G01*
X40481999Y-48949082D02*
X40481955Y-30439419D01*
X21792000Y-66548000D02*
X21792000Y-73914000D01*
X23526696Y-88858150D02*
X34034000Y-107451265D01*
X38446998Y-50880017D02*
G75*
G03*
X40481999Y-48949082I35002J2000917D01*
G01*
X78412223Y-21502678D02*
G75*
G03*
X40916710Y-29758889I11947327J-143529582D01*
G01*
X126936000Y-91383119D02*
G75*
G03*
X58294866Y-98863946I578050J-323956411D01*
G01*
X21789999Y-83530000D02*
G75*
G03*
X23526696Y-88858150I19062771J3266350D01*
G01*
X22542000Y-50877100D02*
G75*
G03*
X21792000Y-51627083I0J-750000D01*
G01*
X21792000Y-58420000D02*
X21792000Y-66548000D01*
X40916692Y-29758850D02*
G75*
G03*
X40481955Y-30439419I315308J-680550D01*
G01*
X34034000Y-107451265D02*
G75*
G03*
X36766000Y-108050000I1662000J1051265D01*
G01*
X127586989Y-38265013D02*
G75*
G03*
X82613611Y-21508139I-44973389J-51973087D01*
G01*
X58294866Y-98863946D02*
G75*
G03*
X36766000Y-108050000I22787134J-83226054D01*
G01*
X21792000Y-73914000D02*
X21790000Y-83530000D01*
X128960000Y-53848000D02*
X128960000Y-72644000D01*
X129013945Y-40278702D02*
X128960000Y-48768000D01*
X131508500Y-77724000D02*
X131254500Y-77724000D01*
X131572000Y-48768000D02*
X131254500Y-48768000D01*
X131254499Y-77724001D02*
G75*
G03*
X129349501Y-77724000I-952499J-380999D01*
G01*
X131254499Y-53848001D02*
G75*
G03*
X129349501Y-53848000I-952499J-380999D01*
G01*
X131572000Y-53848000D02*
X131254500Y-53848000D01*
X131572000Y-72644000D02*
X131254500Y-72644000D01*
X129349501Y-72643999D02*
G75*
G03*
X131254499Y-72644000I952499J380999D01*
G01*
X22542000Y-50877083D02*
X38446998Y-50880000D01*
X129349501Y-48767999D02*
G75*
G03*
X131254499Y-48768000I952499J380999D01*
G01*
D11*
%TO.C,SW16*%
X181076000Y-60316000D03*
D12*
X181356000Y-64516000D03*
D11*
X170636000Y-60316000D03*
D12*
X170356000Y-64516000D03*
D13*
X175856000Y-64516000D03*
D14*
X175856000Y-70416000D03*
X170856000Y-68316000D03*
%TD*%
D12*
%TO.C,SW20*%
X217622860Y-95332000D03*
D11*
X215765347Y-99109307D03*
D12*
X227149140Y-100832000D03*
D11*
X224806653Y-104329307D03*
D13*
X222386000Y-98082000D03*
D14*
X225336000Y-92972450D03*
X228616127Y-97291103D03*
%TD*%
D12*
%TO.C,SW15*%
X152356000Y-71374000D03*
D13*
X157856000Y-71374000D03*
D11*
X152636000Y-67174000D03*
X163076000Y-67174000D03*
D12*
X163356000Y-71374000D03*
D14*
X157856000Y-77274000D03*
X152856000Y-75174000D03*
%TD*%
D13*
%TO.C,SW21*%
X203826000Y-90082000D03*
D12*
X198513408Y-88658495D03*
X209138592Y-91505505D03*
D11*
X207781093Y-95489924D03*
X197696827Y-92787853D03*
D14*
X205353032Y-84383038D03*
X209639142Y-87705577D03*
%TD*%
D12*
%TO.C,SW17*%
X188356000Y-69850000D03*
D13*
X193856000Y-69850000D03*
D11*
X199076000Y-65650000D03*
D12*
X199356000Y-69850000D03*
D11*
X188636000Y-65650000D03*
D14*
X193856000Y-75750000D03*
X188856000Y-73650000D03*
%TD*%
D12*
%TO.C,SW18*%
X206336000Y-72390000D03*
X217336000Y-72390000D03*
D11*
X217056000Y-68190000D03*
D13*
X211836000Y-72390000D03*
D11*
X206616000Y-68190000D03*
D14*
X211836000Y-78290000D03*
X206836000Y-76190000D03*
%TD*%
D12*
%TO.C,SW4*%
X170356000Y-30382000D03*
D11*
X170636000Y-26182000D03*
D13*
X175856000Y-30382000D03*
D12*
X181356000Y-30382000D03*
D11*
X181076000Y-26182000D03*
D14*
X175856000Y-36282000D03*
X170856000Y-34182000D03*
%TD*%
D12*
%TO.C,SW3*%
X152356000Y-37382000D03*
D11*
X152636000Y-33182000D03*
D12*
X163356000Y-37382000D03*
D13*
X157856000Y-37382000D03*
D11*
X163076000Y-33182000D03*
D14*
X157856000Y-43282000D03*
X152856000Y-41182000D03*
%TD*%
D11*
%TO.C,SW9*%
X163076000Y-50156000D03*
D13*
X157856000Y-54356000D03*
D11*
X152636000Y-50156000D03*
D12*
X163356000Y-54356000D03*
X152356000Y-54356000D03*
D14*
X157856000Y-60256000D03*
X152856000Y-58156000D03*
%TD*%
D13*
%TO.C,SW14*%
X139856000Y-83382000D03*
D12*
X145356000Y-83382000D03*
D11*
X134636000Y-79182000D03*
X145076000Y-79182000D03*
D12*
X134356000Y-83382000D03*
D14*
X139856000Y-89282000D03*
X134856000Y-87182000D03*
%TD*%
D13*
%TO.C,SW12*%
X211836000Y-55372000D03*
D12*
X206336000Y-55372000D03*
X217336000Y-55372000D03*
D11*
X217056000Y-51172000D03*
X206616000Y-51172000D03*
D14*
X211836000Y-61272000D03*
X206836000Y-59172000D03*
%TD*%
D13*
%TO.C,SW11*%
X193856000Y-52832000D03*
D11*
X188636000Y-48632000D03*
X199076000Y-48632000D03*
D12*
X188356000Y-52832000D03*
X199356000Y-52832000D03*
D14*
X193856000Y-58732000D03*
X188856000Y-56632000D03*
%TD*%
D13*
%TO.C,SW8*%
X139856000Y-66382000D03*
D12*
X134356000Y-66382000D03*
D11*
X134636000Y-62182000D03*
D12*
X145356000Y-66382000D03*
D11*
X145076000Y-62182000D03*
D14*
X139856000Y-72282000D03*
X134856000Y-70182000D03*
%TD*%
D11*
%TO.C,SW6*%
X206636000Y-34182000D03*
D12*
X206356000Y-38382000D03*
X217356000Y-38382000D03*
D11*
X217076000Y-34182000D03*
D13*
X211856000Y-38382000D03*
D14*
X211856000Y-44282000D03*
X206856000Y-42182000D03*
%TD*%
D12*
%TO.C,SW5*%
X199356000Y-35882000D03*
D13*
X193856000Y-35882000D03*
D12*
X188356000Y-35882000D03*
D11*
X188636000Y-31682000D03*
X199076000Y-31682000D03*
D14*
X193856000Y-41782000D03*
X188856000Y-39682000D03*
%TD*%
D12*
%TO.C,SW2*%
X134356000Y-49382000D03*
X145356000Y-49382000D03*
D13*
X139856000Y-49382000D03*
D11*
X145076000Y-45182000D03*
X134636000Y-45182000D03*
D14*
X139856000Y-55282000D03*
X134856000Y-53182000D03*
%TD*%
D15*
%TO.C,mouse-bite-2mm-slot*%
X129286000Y-51308000D03*
X131318000Y-51308000D03*
X129286000Y-50292000D03*
X129286000Y-49276000D03*
X129286000Y-52324000D03*
X131318000Y-49276000D03*
X129286000Y-53340000D03*
X131318000Y-50292000D03*
X131318000Y-53340000D03*
X131318000Y-52324000D03*
%TD*%
%TO.C,mouse-bite-2mm-slot*%
X131318000Y-77216000D03*
X131318000Y-74168000D03*
X129286000Y-73152000D03*
X131318000Y-75184000D03*
X131318000Y-73152000D03*
X129286000Y-74168000D03*
X129286000Y-75184000D03*
X129286000Y-77216000D03*
X131318000Y-76200000D03*
X129286000Y-76200000D03*
%TD*%
D12*
%TO.C,SW10*%
X170356000Y-47498000D03*
D11*
X170636000Y-43298000D03*
X181076000Y-43298000D03*
D13*
X175856000Y-47498000D03*
D12*
X181356000Y-47498000D03*
D14*
X175856000Y-53398000D03*
X170856000Y-51298000D03*
%TD*%
D16*
%TO.C,Bat+r1*%
X235966000Y-52800000D03*
%TD*%
%TO.C,BatGND1*%
X224282000Y-52800000D03*
%TD*%
D11*
%TO.C,SW17_r1*%
X43466000Y-68190000D03*
D12*
X43186000Y-72390000D03*
D13*
X48686000Y-72390000D03*
D12*
X54186000Y-72390000D03*
D11*
X53906000Y-68190000D03*
D14*
X48686000Y-78290000D03*
X43686000Y-76190000D03*
%TD*%
D11*
%TO.C,SW11_r1*%
X61480000Y-48632000D03*
X71920000Y-48632000D03*
D12*
X61200000Y-52832000D03*
X72200000Y-52832000D03*
D13*
X66700000Y-52832000D03*
D14*
X66700000Y-58732000D03*
X61700000Y-56632000D03*
%TD*%
D12*
%TO.C,SW15_r1*%
X90188000Y-64516000D03*
D11*
X79468000Y-60316000D03*
D13*
X84688000Y-64516000D03*
D12*
X79188000Y-64516000D03*
D11*
X89908000Y-60316000D03*
D14*
X84688000Y-70416000D03*
X79688000Y-68316000D03*
%TD*%
D13*
%TO.C,SW18_r1*%
X102714000Y-71374000D03*
D12*
X108214000Y-71374000D03*
D11*
X97494000Y-67174000D03*
D12*
X97214000Y-71374000D03*
D11*
X107934000Y-67174000D03*
D14*
X102714000Y-77274000D03*
X97714000Y-75174000D03*
%TD*%
D12*
%TO.C,SW6_r1*%
X54186000Y-38382000D03*
D11*
X53906000Y-34182000D03*
X43466000Y-34182000D03*
D12*
X43186000Y-38382000D03*
D13*
X48686000Y-38382000D03*
D14*
X48686000Y-44282000D03*
X43686000Y-42182000D03*
%TD*%
D12*
%TO.C,SW5_r1*%
X61200000Y-35882000D03*
D11*
X71920000Y-31682000D03*
D13*
X66700000Y-35882000D03*
D12*
X72200000Y-35882000D03*
D11*
X61480000Y-31682000D03*
D14*
X66700000Y-41782000D03*
X61700000Y-39682000D03*
%TD*%
D11*
%TO.C,SW2_r1*%
X125952000Y-45182000D03*
X115512000Y-45182000D03*
D12*
X115232000Y-49382000D03*
D13*
X120732000Y-49382000D03*
D12*
X126232000Y-49382000D03*
D14*
X120732000Y-55282000D03*
X115732000Y-53182000D03*
%TD*%
D13*
%TO.C,SW16_r1*%
X66700000Y-69850000D03*
D12*
X61200000Y-69850000D03*
D11*
X61480000Y-65650000D03*
X71920000Y-65650000D03*
D12*
X72200000Y-69850000D03*
D14*
X66700000Y-75750000D03*
X61700000Y-73650000D03*
%TD*%
D12*
%TO.C,SW4_r1*%
X79188000Y-30382000D03*
D11*
X89908000Y-26182000D03*
D13*
X84688000Y-30382000D03*
D12*
X90188000Y-30382000D03*
D11*
X79468000Y-26182000D03*
D14*
X84688000Y-36282000D03*
X79688000Y-34182000D03*
%TD*%
D12*
%TO.C,SW13_r1*%
X115232000Y-83382000D03*
D11*
X115512000Y-79182000D03*
X125952000Y-79182000D03*
D12*
X126232000Y-83382000D03*
D13*
X120732000Y-83382000D03*
D14*
X120732000Y-89282000D03*
X115732000Y-87182000D03*
%TD*%
D13*
%TO.C,SW12_r1*%
X48686000Y-55372000D03*
D12*
X43186000Y-55372000D03*
D11*
X53906000Y-51172000D03*
X43466000Y-51172000D03*
D12*
X54186000Y-55372000D03*
D14*
X48686000Y-61272000D03*
X43686000Y-59172000D03*
%TD*%
D11*
%TO.C,SW3_r1*%
X97494000Y-33182000D03*
D13*
X102714000Y-37382000D03*
D12*
X97214000Y-37382000D03*
D11*
X107934000Y-33182000D03*
D12*
X108214000Y-37382000D03*
D14*
X102714000Y-43282000D03*
X97714000Y-41182000D03*
%TD*%
D12*
%TO.C,SW8_r1*%
X108214000Y-54356000D03*
D13*
X102714000Y-54356000D03*
D12*
X97214000Y-54356000D03*
D11*
X107934000Y-50156000D03*
X97494000Y-50156000D03*
D14*
X102714000Y-60256000D03*
X97714000Y-58156000D03*
%TD*%
D12*
%TO.C,SW21_r1*%
X62090592Y-88658495D03*
D11*
X62907173Y-92787853D03*
D12*
X51465408Y-91505505D03*
D11*
X52822907Y-95489924D03*
D13*
X56778000Y-90082000D03*
D14*
X55250968Y-84383038D03*
X60624117Y-85117387D03*
%TD*%
D12*
%TO.C,SW9_r1*%
X79188000Y-47498000D03*
D13*
X84688000Y-47498000D03*
D12*
X90188000Y-47498000D03*
D11*
X89908000Y-43298000D03*
X79468000Y-43298000D03*
D14*
X84688000Y-53398000D03*
X79688000Y-51298000D03*
%TD*%
D11*
%TO.C,SW20_r1*%
X35797347Y-104329307D03*
D12*
X42981140Y-95332000D03*
X33454860Y-100832000D03*
D13*
X38218000Y-98082000D03*
D11*
X44838653Y-99109307D03*
D14*
X35268000Y-92972450D03*
X40648127Y-92291103D03*
%TD*%
D11*
%TO.C,SW7_r1*%
X115512000Y-62182000D03*
D13*
X120732000Y-66382000D03*
D12*
X115232000Y-66382000D03*
X126232000Y-66382000D03*
D11*
X125952000Y-62182000D03*
D14*
X120732000Y-72282000D03*
X115732000Y-70182000D03*
%TD*%
D16*
%TO.C,BatGND4*%
X36068000Y-52832000D03*
%TD*%
%TO.C,Bat+1*%
X24638000Y-52832000D03*
%TD*%
D17*
%TO.C,SW_POWERR1*%
X228624000Y-53816000D03*
X231624000Y-53816000D03*
%TD*%
%TO.C,SW_POWER1*%
X31980000Y-53816000D03*
X28980000Y-53816000D03*
%TD*%
M02*
