M48
; DRILL file {KiCad (6.0.4-0)} date 2022 April 01, Friday 22:46:25
; FORMAT={-:-/ absolute / metric / decimal}
; #@! TF.CreationDate,2022-04-01T22:46:25+02:00
; #@! TF.GenerationSoftware,Kicad,Pcbnew,(6.0.4-0)
; #@! TF.FileFunction,NonPlated,1,2,NPTH
FMAT,2
METRIC
; #@! TA.AperFunction,NonPlated,NPTH,ComponentDrill
T1C0.500
; #@! TA.AperFunction,NonPlated,NPTH,ComponentDrill
T2C0.900
; #@! TA.AperFunction,NonPlated,NPTH,ComponentDrill
T3C0.991
; #@! TA.AperFunction,NonPlated,NPTH,ComponentDrill
T4C1.702
; #@! TA.AperFunction,NonPlated,NPTH,ComponentDrill
T5C3.429
%
G90
G05
T1
X129.286Y-49.276
X129.286Y-50.292
X129.286Y-51.308
X129.286Y-52.324
X129.286Y-53.34
X129.286Y-73.152
X129.286Y-74.168
X129.286Y-75.184
X129.286Y-76.2
X129.286Y-77.216
X131.318Y-49.276
X131.318Y-50.292
X131.318Y-51.308
X131.318Y-52.324
X131.318Y-53.34
X131.318Y-73.152
X131.318Y-74.168
X131.318Y-75.184
X131.318Y-76.2
X131.318Y-77.216
T2
X28.98Y-53.816
X31.98Y-53.816
X228.624Y-53.816
X231.624Y-53.816
T3
X35.797Y-104.329
X43.466Y-34.182
X43.466Y-51.172
X43.466Y-68.19
X44.839Y-99.109
X52.823Y-95.49
X53.906Y-34.182
X53.906Y-51.172
X53.906Y-68.19
X61.48Y-31.682
X61.48Y-48.632
X61.48Y-65.65
X62.907Y-92.788
X71.92Y-31.682
X71.92Y-48.632
X71.92Y-65.65
X79.468Y-26.182
X79.468Y-43.298
X79.468Y-60.316
X89.908Y-26.182
X89.908Y-43.298
X89.908Y-60.316
X97.494Y-33.182
X97.494Y-50.156
X97.494Y-67.174
X107.934Y-33.182
X107.934Y-50.156
X107.934Y-67.174
X115.512Y-45.182
X115.512Y-62.182
X115.512Y-79.182
X125.952Y-45.182
X125.952Y-62.182
X125.952Y-79.182
X134.636Y-45.182
X134.636Y-62.182
X134.636Y-79.182
X145.076Y-45.182
X145.076Y-62.182
X145.076Y-79.182
X152.636Y-33.182
X152.636Y-50.156
X152.636Y-67.174
X163.076Y-33.182
X163.076Y-50.156
X163.076Y-67.174
X170.636Y-26.182
X170.636Y-43.298
X170.636Y-60.316
X181.076Y-26.182
X181.076Y-43.298
X181.076Y-60.316
X188.636Y-31.682
X188.636Y-48.632
X188.636Y-65.65
X197.697Y-92.788
X199.076Y-31.682
X199.076Y-48.632
X199.076Y-65.65
X206.616Y-51.172
X206.616Y-68.19
X206.636Y-34.182
X207.781Y-95.49
X215.765Y-99.109
X217.056Y-51.172
X217.056Y-68.19
X217.076Y-34.182
X224.807Y-104.329
T4
X33.455Y-100.832
X42.981Y-95.332
X43.186Y-38.382
X43.186Y-55.372
X43.186Y-72.39
X51.465Y-91.506
X54.186Y-38.382
X54.186Y-55.372
X54.186Y-72.39
X61.2Y-35.882
X61.2Y-52.832
X61.2Y-69.85
X62.091Y-88.658
X72.2Y-35.882
X72.2Y-52.832
X72.2Y-69.85
X79.188Y-30.382
X79.188Y-47.498
X79.188Y-64.516
X90.188Y-30.382
X90.188Y-47.498
X90.188Y-64.516
X97.214Y-37.382
X97.214Y-54.356
X97.214Y-71.374
X108.214Y-37.382
X108.214Y-54.356
X108.214Y-71.374
X115.232Y-49.382
X115.232Y-66.382
X115.232Y-83.382
X126.232Y-49.382
X126.232Y-66.382
X126.232Y-83.382
X134.356Y-49.382
X134.356Y-66.382
X134.356Y-83.382
X145.356Y-49.382
X145.356Y-66.382
X145.356Y-83.382
X152.356Y-37.382
X152.356Y-54.356
X152.356Y-71.374
X163.356Y-37.382
X163.356Y-54.356
X163.356Y-71.374
X170.356Y-30.382
X170.356Y-47.498
X170.356Y-64.516
X181.356Y-30.382
X181.356Y-47.498
X181.356Y-64.516
X188.356Y-35.882
X188.356Y-52.832
X188.356Y-69.85
X198.513Y-88.658
X199.356Y-35.882
X199.356Y-52.832
X199.356Y-69.85
X206.336Y-55.372
X206.336Y-72.39
X206.356Y-38.382
X209.139Y-91.506
X217.336Y-55.372
X217.336Y-72.39
X217.356Y-38.382
X217.623Y-95.332
X227.149Y-100.832
T5
X38.218Y-98.082
X48.686Y-38.382
X48.686Y-55.372
X48.686Y-72.39
X56.778Y-90.082
X66.7Y-35.882
X66.7Y-52.832
X66.7Y-69.85
X84.688Y-30.382
X84.688Y-47.498
X84.688Y-64.516
X102.714Y-37.382
X102.714Y-54.356
X102.714Y-71.374
X120.732Y-49.382
X120.732Y-66.382
X120.732Y-83.382
X139.856Y-49.382
X139.856Y-66.382
X139.856Y-83.382
X157.856Y-37.382
X157.856Y-54.356
X157.856Y-71.374
X175.856Y-30.382
X175.856Y-47.498
X175.856Y-64.516
X193.856Y-35.882
X193.856Y-52.832
X193.856Y-69.85
X203.826Y-90.082
X211.836Y-55.372
X211.836Y-72.39
X211.856Y-38.382
X222.386Y-98.082
T0
M30
