M48
; DRILL file {KiCad (6.0.4-0)} date 2022 April 01, Friday 22:46:21
; FORMAT={-:-/ absolute / metric / decimal}
; #@! TF.CreationDate,2022-04-01T22:46:21+02:00
; #@! TF.GenerationSoftware,Kicad,Pcbnew,(6.0.4-0)
; #@! TF.FileFunction,Plated,1,2,PTH
FMAT,2
METRIC
; #@! TA.AperFunction,Plated,PTH,ViaDrill
T1C0.400
; #@! TA.AperFunction,Plated,PTH,ComponentDrill
T2C0.813
; #@! TA.AperFunction,Plated,PTH,ComponentDrill
T3C1.270
%
G90
G05
T1
X52.324Y-63.5
X217.3Y-53.35
X221.057Y-53.823
T2
X22.717Y-55.086
X22.717Y-57.626
X22.717Y-60.166
X22.717Y-62.706
X22.717Y-65.246
X22.717Y-67.786
X22.717Y-70.326
X22.717Y-72.866
X22.717Y-75.406
X22.717Y-77.946
X22.717Y-80.486
X22.717Y-83.026
X24.638Y-52.832
X36.068Y-52.832
X37.937Y-55.086
X37.937Y-57.626
X37.937Y-60.166
X37.937Y-62.706
X37.937Y-65.246
X37.937Y-67.786
X37.937Y-70.326
X37.937Y-72.866
X37.937Y-75.406
X37.937Y-77.946
X37.937Y-80.486
X37.937Y-83.026
X222.569Y-55.086
X222.569Y-57.626
X222.569Y-60.166
X222.569Y-62.706
X222.569Y-65.246
X222.569Y-67.786
X222.569Y-70.326
X222.569Y-72.866
X222.569Y-75.406
X222.569Y-77.946
X222.569Y-80.486
X222.569Y-83.026
X224.282Y-52.8
X235.966Y-52.8
X237.789Y-55.086
X237.789Y-57.626
X237.789Y-60.166
X237.789Y-62.706
X237.789Y-65.246
X237.789Y-67.786
X237.789Y-70.326
X237.789Y-72.866
X237.789Y-75.406
X237.789Y-77.946
X237.789Y-80.486
X237.789Y-83.026
T3
X35.268Y-92.972
X40.648Y-92.291
X43.686Y-42.182
X43.686Y-59.172
X43.686Y-76.19
X48.686Y-44.282
X48.686Y-61.272
X48.686Y-78.29
X55.251Y-84.383
X60.624Y-85.117
X61.7Y-39.682
X61.7Y-56.632
X61.7Y-73.65
X66.7Y-41.782
X66.7Y-58.732
X66.7Y-75.75
X79.688Y-34.182
X79.688Y-51.298
X79.688Y-68.316
X84.688Y-36.282
X84.688Y-53.398
X84.688Y-70.416
X97.714Y-41.182
X97.714Y-58.156
X97.714Y-75.174
X102.714Y-43.282
X102.714Y-60.256
X102.714Y-77.274
X115.732Y-53.182
X115.732Y-70.182
X115.732Y-87.182
X120.732Y-55.282
X120.732Y-72.282
X120.732Y-89.282
X134.856Y-53.182
X134.856Y-70.182
X134.856Y-87.182
X139.856Y-55.282
X139.856Y-72.282
X139.856Y-89.282
X152.856Y-41.182
X152.856Y-58.156
X152.856Y-75.174
X157.856Y-43.282
X157.856Y-60.256
X157.856Y-77.274
X170.856Y-34.182
X170.856Y-51.298
X170.856Y-68.316
X175.856Y-36.282
X175.856Y-53.398
X175.856Y-70.416
X188.856Y-39.682
X188.856Y-56.632
X188.856Y-73.65
X193.856Y-41.782
X193.856Y-58.732
X193.856Y-75.75
X205.353Y-84.383
X206.836Y-59.172
X206.836Y-76.19
X206.856Y-42.182
X209.639Y-87.706
X211.836Y-61.272
X211.836Y-78.29
X211.856Y-44.282
X225.336Y-92.972
X228.616Y-97.291
T0
M30
